<?xml version="1.0" encoding="UTF-8" standalone="no"?>
<!DOCTYPE svg PUBLIC "-//W3C//DTD SVG 1.0//EN" "http://www.w3.org/TR/2001/PR-SVG-20010719/DTD/svg10.dtd">
<svg width="41cm" height="13cm" viewBox="61 71 817 250" xmlns="http://www.w3.org/2000/svg" xmlns:xlink="http://www.w3.org/1999/xlink">
  <g>
    <ellipse style="fill: #ffffff" cx="82.2753" cy="168.376" rx="20" ry="20"/>
    <ellipse style="fill: none; fill-opacity:0; stroke-width: 2; stroke: #000000" cx="82.2753" cy="168.376" rx="20" ry="20"/>
    <ellipse style="fill: none; fill-opacity:0; stroke-width: 0.2; stroke: #000000" cx="82.2753" cy="168.376" rx="20" ry="20"/>
  </g>
  <g>
    <polygon style="fill: #ffffff" points="161,150 181,170 161,190 141,170 "/>
    <polygon style="fill: none; fill-opacity:0; stroke-width: 2; stroke: #000000" points="161,150 181,170 161,190 141,170 "/>
    <polygon style="fill: none; fill-opacity:0; stroke-width: 0.2; stroke: #000000" points="161,150 181,170 161,190 141,170 "/>
  </g>
  <g>
    <path style="fill: #ffffff" d="M 224.532 149.273 C 237.809,149.273 304.191,149.273 317.468,149.273 C 330.744,149.273 330.744,149.273 330.744,156.182 C 330.744,163.091 330.744,176.909 330.744,183.818 C 330.744,190.727 330.744,190.727 317.468,190.727 C 304.191,190.727 237.809,190.727 224.532,190.727 C 211.256,190.727 211.256,190.727 211.256,183.818 C 211.256,176.909 211.256,163.091 211.256,156.182 C 211.256,149.273 211.256,149.273 224.532,149.273z"/>
    <path style="fill: none; fill-opacity:0; stroke-width: 2; stroke: #000000" d="M 224.532 149.273 C 237.809,149.273 304.191,149.273 317.468,149.273 C 330.744,149.273 330.744,149.273 330.744,156.182 C 330.744,163.091 330.744,176.909 330.744,183.818 C 330.744,190.727 330.744,190.727 317.468,190.727 C 304.191,190.727 237.809,190.727 224.532,190.727 C 211.256,190.727 211.256,190.727 211.256,183.818 C 211.256,176.909 211.256,163.091 211.256,156.182 C 211.256,149.273 211.256,149.273 224.532,149.273"/>
    <path style="fill: none; fill-opacity:0; stroke-width: 0.2; stroke: #000000" d="M 224.532 149.273 C 237.809,149.273 304.191,149.273 317.468,149.273 C 330.744,149.273 330.744,149.273 330.744,156.182 C 330.744,163.091 330.744,176.909 330.744,183.818 C 330.744,190.727 330.744,190.727 317.468,190.727 C 304.191,190.727 237.809,190.727 224.532,190.727 C 211.256,190.727 211.256,190.727 211.256,183.818 C 211.256,176.909 211.256,163.091 211.256,156.182 C 211.256,149.273 211.256,149.273 224.532,149.273"/>
    <line style="fill: none; fill-opacity:0; stroke-width: 0.2; stroke: #000000" x1="224.532" y1="190.727" x2="317.468" y2="190.727"/>
    <line style="fill: none; fill-opacity:0; stroke-width: 0.2; stroke: #000000" x1="330.744" y1="156.182" x2="330.744" y2="183.818"/>
    <line style="fill: none; fill-opacity:0; stroke-width: 0.2; stroke: #000000" x1="211.256" y1="156.182" x2="211.256" y2="183.818"/>
    <line style="fill: none; fill-opacity:0; stroke-width: 0.2; stroke: #000000" x1="224.532" y1="149.273" x2="317.468" y2="149.273"/>
    <text font-size="12.7998" style="fill: #000000;text-anchor:middle;font-family:sans-serif;font-style:normal;font-weight:normal" x="271" y="174">
      <tspan x="271" y="174">Get Next Fire Time</tspan>
    </text>
  </g>
  <g>
    <polygon style="fill: #ffffff" points="379,150 399,170 379,190 359,170 "/>
    <polygon style="fill: none; fill-opacity:0; stroke-width: 2; stroke: #000000" points="379,150 399,170 379,190 359,170 "/>
    <polygon style="fill: none; fill-opacity:0; stroke-width: 0.2; stroke: #000000" points="379,150 399,170 379,190 359,170 "/>
  </g>
  <g>
    <path style="fill: #ffffff" d="M 332.438 215.273 C 345.456,215.273 410.544,215.273 423.562,215.273 C 436.579,215.273 436.579,215.273 436.579,222.182 C 436.579,229.091 436.579,242.909 436.579,249.818 C 436.579,256.727 436.579,256.727 423.562,256.727 C 410.544,256.727 345.456,256.727 332.438,256.727 C 319.421,256.727 319.421,256.727 319.421,249.818 C 319.421,242.909 319.421,229.091 319.421,222.182 C 319.421,215.273 319.421,215.273 332.438,215.273z"/>
    <path style="fill: none; fill-opacity:0; stroke-width: 2; stroke: #000000" d="M 332.438 215.273 C 345.456,215.273 410.544,215.273 423.562,215.273 C 436.579,215.273 436.579,215.273 436.579,222.182 C 436.579,229.091 436.579,242.909 436.579,249.818 C 436.579,256.727 436.579,256.727 423.562,256.727 C 410.544,256.727 345.456,256.727 332.438,256.727 C 319.421,256.727 319.421,256.727 319.421,249.818 C 319.421,242.909 319.421,229.091 319.421,222.182 C 319.421,215.273 319.421,215.273 332.438,215.273"/>
    <path style="fill: none; fill-opacity:0; stroke-width: 0.2; stroke: #000000" d="M 332.438 215.273 C 345.456,215.273 410.544,215.273 423.562,215.273 C 436.579,215.273 436.579,215.273 436.579,222.182 C 436.579,229.091 436.579,242.909 436.579,249.818 C 436.579,256.727 436.579,256.727 423.562,256.727 C 410.544,256.727 345.456,256.727 332.438,256.727 C 319.421,256.727 319.421,256.727 319.421,249.818 C 319.421,242.909 319.421,229.091 319.421,222.182 C 319.421,215.273 319.421,215.273 332.438,215.273"/>
    <line style="fill: none; fill-opacity:0; stroke-width: 0.2; stroke: #000000" x1="332.438" y1="256.727" x2="423.562" y2="256.727"/>
    <line style="fill: none; fill-opacity:0; stroke-width: 0.2; stroke: #000000" x1="436.579" y1="222.182" x2="436.579" y2="249.818"/>
    <line style="fill: none; fill-opacity:0; stroke-width: 0.2; stroke: #000000" x1="319.421" y1="222.182" x2="319.421" y2="249.818"/>
    <line style="fill: none; fill-opacity:0; stroke-width: 0.2; stroke: #000000" x1="332.438" y1="215.273" x2="423.562" y2="215.273"/>
    <text font-size="12.7998" style="fill: #000000;text-anchor:middle;font-family:sans-serif;font-style:normal;font-weight:normal" x="378" y="240">
      <tspan x="378" y="240">Set Next Fire Time</tspan>
    </text>
  </g>
  <g>
    <path style="fill: #ffffff" d="M 499.309 149.273 C 511.221,149.273 570.779,149.273 582.691,149.273 C 594.603,149.273 594.603,149.273 594.603,156.182 C 594.603,163.091 594.603,176.909 594.603,183.818 C 594.603,190.727 594.603,190.727 582.691,190.727 C 570.779,190.727 511.221,190.727 499.309,190.727 C 487.397,190.727 487.397,190.727 487.397,183.818 C 487.397,176.909 487.397,163.091 487.397,156.182 C 487.397,149.273 487.397,149.273 499.309,149.273z"/>
    <path style="fill: none; fill-opacity:0; stroke-width: 2; stroke: #000000" d="M 499.309 149.273 C 511.221,149.273 570.779,149.273 582.691,149.273 C 594.603,149.273 594.603,149.273 594.603,156.182 C 594.603,163.091 594.603,176.909 594.603,183.818 C 594.603,190.727 594.603,190.727 582.691,190.727 C 570.779,190.727 511.221,190.727 499.309,190.727 C 487.397,190.727 487.397,190.727 487.397,183.818 C 487.397,176.909 487.397,163.091 487.397,156.182 C 487.397,149.273 487.397,149.273 499.309,149.273"/>
    <path style="fill: none; fill-opacity:0; stroke-width: 0.2; stroke: #000000" d="M 499.309 149.273 C 511.221,149.273 570.779,149.273 582.691,149.273 C 594.603,149.273 594.603,149.273 594.603,156.182 C 594.603,163.091 594.603,176.909 594.603,183.818 C 594.603,190.727 594.603,190.727 582.691,190.727 C 570.779,190.727 511.221,190.727 499.309,190.727 C 487.397,190.727 487.397,190.727 487.397,183.818 C 487.397,176.909 487.397,163.091 487.397,156.182 C 487.397,149.273 487.397,149.273 499.309,149.273"/>
    <line style="fill: none; fill-opacity:0; stroke-width: 0.2; stroke: #000000" x1="499.309" y1="190.727" x2="582.691" y2="190.727"/>
    <line style="fill: none; fill-opacity:0; stroke-width: 0.2; stroke: #000000" x1="594.603" y1="156.182" x2="594.603" y2="183.818"/>
    <line style="fill: none; fill-opacity:0; stroke-width: 0.2; stroke: #000000" x1="487.397" y1="156.182" x2="487.397" y2="183.818"/>
    <line style="fill: none; fill-opacity:0; stroke-width: 0.2; stroke: #000000" x1="499.309" y1="149.273" x2="582.691" y2="149.273"/>
    <text font-size="12.7998" style="fill: #000000;text-anchor:middle;font-family:sans-serif;font-style:normal;font-weight:normal" x="541" y="174">
      <tspan x="541" y="174">Set Execute Lock</tspan>
    </text>
  </g>
  <g>
    <polygon style="fill: #ffffff" points="444,149 464,169 444,189 424,169 "/>
    <polygon style="fill: none; fill-opacity:0; stroke-width: 2; stroke: #000000" points="444,149 464,169 444,189 424,169 "/>
    <polygon style="fill: none; fill-opacity:0; stroke-width: 0.2; stroke: #000000" points="444,149 464,169 444,189 424,169 "/>
  </g>
  <g>
    <ellipse style="fill: #000000" cx="443" cy="93" rx="20" ry="20"/>
    <ellipse style="fill: none; fill-opacity:0; stroke-width: 2; stroke: #000000" cx="443" cy="93" rx="20" ry="20"/>
    <ellipse style="fill: none; fill-opacity:0; stroke-width: 0.2; stroke: #000000" cx="443" cy="93" rx="20" ry="20"/>
    <ellipse style="fill: #ffffff" cx="443" cy="93" rx="17.1429" ry="17.1429"/>
    <ellipse style="fill: none; fill-opacity:0; stroke-width: 2; stroke: #000000" cx="443" cy="93" rx="17.1429" ry="17.1429"/>
    <ellipse style="fill: none; fill-opacity:0; stroke-width: 0.2; stroke: #000000" cx="443" cy="93" rx="17.1429" ry="17.1429"/>
  </g>
  <g>
    <polygon style="fill: #ffffff" points="640,149 660,169 640,189 620,169 "/>
    <polygon style="fill: none; fill-opacity:0; stroke-width: 2; stroke: #000000" points="640,149 660,169 640,189 620,169 "/>
    <polygon style="fill: none; fill-opacity:0; stroke-width: 0.2; stroke: #000000" points="640,149 660,169 640,189 620,169 "/>
  </g>
  <g>
    <path style="fill: #ffffff" d="M 693.512 149 C 702.794,149 749.206,149 758.488,149 C 767.771,149 767.771,149 767.771,155.667 C 767.771,162.333 767.771,175.667 767.771,182.333 C 767.771,189 767.771,189 758.488,189 C 749.206,189 702.794,189 693.512,189 C 684.229,189 684.229,189 684.229,182.333 C 684.229,175.667 684.229,162.333 684.229,155.667 C 684.229,149 684.229,149 693.512,149z"/>
    <path style="fill: none; fill-opacity:0; stroke-width: 2; stroke: #000000" d="M 693.512 149 C 702.794,149 749.206,149 758.488,149 C 767.771,149 767.771,149 767.771,155.667 C 767.771,162.333 767.771,175.667 767.771,182.333 C 767.771,189 767.771,189 758.488,189 C 749.206,189 702.794,189 693.512,189 C 684.229,189 684.229,189 684.229,182.333 C 684.229,175.667 684.229,162.333 684.229,155.667 C 684.229,149 684.229,149 693.512,149"/>
    <path style="fill: none; fill-opacity:0; stroke-width: 0.2; stroke: #000000" d="M 693.512 149 C 702.794,149 749.206,149 758.488,149 C 767.771,149 767.771,149 767.771,155.667 C 767.771,162.333 767.771,175.667 767.771,182.333 C 767.771,189 767.771,189 758.488,189 C 749.206,189 702.794,189 693.512,189 C 684.229,189 684.229,189 684.229,182.333 C 684.229,175.667 684.229,162.333 684.229,155.667 C 684.229,149 684.229,149 693.512,149"/>
    <line style="fill: none; fill-opacity:0; stroke-width: 0.2; stroke: #000000" x1="693.512" y1="189" x2="758.488" y2="189"/>
    <line style="fill: none; fill-opacity:0; stroke-width: 0.2; stroke: #000000" x1="767.771" y1="155.667" x2="767.771" y2="182.333"/>
    <line style="fill: none; fill-opacity:0; stroke-width: 0.2; stroke: #000000" x1="684.229" y1="155.667" x2="684.229" y2="182.333"/>
    <line style="fill: none; fill-opacity:0; stroke-width: 0.2; stroke: #000000" x1="693.512" y1="149" x2="758.488" y2="149"/>
    <text font-size="12.7998" style="fill: #000000;text-anchor:middle;font-family:sans-serif;font-style:normal;font-weight:normal" x="726" y="173">
      <tspan x="726" y="173">Execute Task</tspan>
    </text>
  </g>
  <g>
    <ellipse style="fill: #ffffff" cx="640" cy="93" rx="20" ry="20"/>
    <ellipse style="fill: none; fill-opacity:0; stroke-width: 2; stroke: #000000" cx="640" cy="93" rx="20" ry="20"/>
    <ellipse style="fill: none; fill-opacity:0; stroke-width: 0.2; stroke: #000000" cx="640" cy="93" rx="20" ry="20"/>
    <ellipse style="fill: #ffffff" cx="640" cy="93" rx="17.1429" ry="17.1429"/>
    <ellipse style="fill: none; fill-opacity:0; stroke-width: 2; stroke: #000000" cx="640" cy="93" rx="17.1429" ry="17.1429"/>
    <ellipse style="fill: none; fill-opacity:0; stroke-width: 0.2; stroke: #000000" cx="640" cy="93" rx="17.1429" ry="17.1429"/>
    <polygon style="fill: #000000" points="628.571,84.4286 637.143,93 628.571,101.571 631.429,104.429 640,95.8571 648.571,104.429 651.429,101.571 642.857,93 651.429,84.4286 648.571,81.5714 640,90.1429 631.429,81.5714 "/>
    <polygon style="fill: none; fill-opacity:0; stroke-width: 2; stroke: #000000" points="628.571,84.4286 637.143,93 628.571,101.571 631.429,104.429 640,95.8571 648.571,104.429 651.429,101.571 642.857,93 651.429,84.4286 648.571,81.5714 640,90.1429 631.429,81.5714 "/>
    <polygon style="fill: none; fill-opacity:0; stroke-width: 0.2; stroke: #000000" points="628.571,84.4286 637.143,93 628.571,101.571 631.429,104.429 640,95.8571 648.571,104.429 651.429,101.571 642.857,93 651.429,84.4286 648.571,81.5714 640,90.1429 631.429,81.5714 "/>
  </g>
  <g>
    <path style="fill: #ffffff" d="M 802.326 148 C 811.662,148 858.338,148 867.674,148 C 877.009,148 877.009,148 877.009,154.667 C 877.009,161.333 877.009,174.667 877.009,181.333 C 877.009,188 877.009,188 867.674,188 C 858.338,188 811.662,188 802.326,188 C 792.991,188 792.991,188 792.991,181.333 C 792.991,174.667 792.991,161.333 792.991,154.667 C 792.991,148 792.991,148 802.326,148z"/>
    <path style="fill: none; fill-opacity:0; stroke-width: 2; stroke: #000000" d="M 802.326 148 C 811.662,148 858.338,148 867.674,148 C 877.009,148 877.009,148 877.009,154.667 C 877.009,161.333 877.009,174.667 877.009,181.333 C 877.009,188 877.009,188 867.674,188 C 858.338,188 811.662,188 802.326,188 C 792.991,188 792.991,188 792.991,181.333 C 792.991,174.667 792.991,161.333 792.991,154.667 C 792.991,148 792.991,148 802.326,148"/>
    <path style="fill: none; fill-opacity:0; stroke-width: 0.2; stroke: #000000" d="M 802.326 148 C 811.662,148 858.338,148 867.674,148 C 877.009,148 877.009,148 877.009,154.667 C 877.009,161.333 877.009,174.667 877.009,181.333 C 877.009,188 877.009,188 867.674,188 C 858.338,188 811.662,188 802.326,188 C 792.991,188 792.991,188 792.991,181.333 C 792.991,174.667 792.991,161.333 792.991,154.667 C 792.991,148 792.991,148 802.326,148"/>
    <line style="fill: none; fill-opacity:0; stroke-width: 0.2; stroke: #000000" x1="802.326" y1="188" x2="867.674" y2="188"/>
    <line style="fill: none; fill-opacity:0; stroke-width: 0.2; stroke: #000000" x1="877.009" y1="154.667" x2="877.009" y2="181.333"/>
    <line style="fill: none; fill-opacity:0; stroke-width: 0.2; stroke: #000000" x1="792.991" y1="154.667" x2="792.991" y2="181.333"/>
    <line style="fill: none; fill-opacity:0; stroke-width: 0.2; stroke: #000000" x1="802.326" y1="148" x2="867.674" y2="148"/>
    <text font-size="12.7998" style="fill: #000000;text-anchor:middle;font-family:sans-serif;font-style:normal;font-weight:normal" x="835" y="172">
      <tspan x="835" y="172">Release Lock</tspan>
    </text>
  </g>
  <g>
    <ellipse style="fill: #000000" cx="834" cy="237" rx="20" ry="20"/>
    <ellipse style="fill: none; fill-opacity:0; stroke-width: 2; stroke: #000000" cx="834" cy="237" rx="20" ry="20"/>
    <ellipse style="fill: none; fill-opacity:0; stroke-width: 0.2; stroke: #000000" cx="834" cy="237" rx="20" ry="20"/>
    <ellipse style="fill: #ffffff" cx="834" cy="237" rx="17.1429" ry="17.1429"/>
    <ellipse style="fill: none; fill-opacity:0; stroke-width: 2; stroke: #000000" cx="834" cy="237" rx="17.1429" ry="17.1429"/>
    <ellipse style="fill: none; fill-opacity:0; stroke-width: 0.2; stroke: #000000" cx="834" cy="237" rx="17.1429" ry="17.1429"/>
  </g>
  <g>
    <line style="fill: none; fill-opacity:0; stroke-width: 2; stroke: #000000" x1="102.275" y1="168.376" x2="131.272" y2="169.592"/>
    <polygon style="fill: #000000" points="138.766,169.906 128.565,174.483 131.272,169.592 128.984,164.492 "/>
    <polygon style="fill: none; fill-opacity:0; stroke-width: 2; stroke: #000000" points="138.766,169.906 128.565,174.483 131.272,169.592 128.984,164.492 "/>
  </g>
  <g>
    <path style="fill: #ffffff" d="M 128.688 214.273 C 137.971,214.273 184.382,214.273 193.665,214.273 C 202.947,214.273 202.947,214.273 202.947,221.182 C 202.947,228.091 202.947,241.909 202.947,248.818 C 202.947,255.727 202.947,255.727 193.665,255.727 C 184.382,255.727 137.971,255.727 128.688,255.727 C 119.406,255.727 119.406,255.727 119.406,248.818 C 119.406,241.909 119.406,228.091 119.406,221.182 C 119.406,214.273 119.406,214.273 128.688,214.273z"/>
    <path style="fill: none; fill-opacity:0; stroke-width: 2; stroke: #000000" d="M 128.688 214.273 C 137.971,214.273 184.382,214.273 193.665,214.273 C 202.947,214.273 202.947,214.273 202.947,221.182 C 202.947,228.091 202.947,241.909 202.947,248.818 C 202.947,255.727 202.947,255.727 193.665,255.727 C 184.382,255.727 137.971,255.727 128.688,255.727 C 119.406,255.727 119.406,255.727 119.406,248.818 C 119.406,241.909 119.406,228.091 119.406,221.182 C 119.406,214.273 119.406,214.273 128.688,214.273"/>
    <path style="fill: none; fill-opacity:0; stroke-width: 0.2; stroke: #000000" d="M 128.688 214.273 C 137.971,214.273 184.382,214.273 193.665,214.273 C 202.947,214.273 202.947,214.273 202.947,221.182 C 202.947,228.091 202.947,241.909 202.947,248.818 C 202.947,255.727 202.947,255.727 193.665,255.727 C 184.382,255.727 137.971,255.727 128.688,255.727 C 119.406,255.727 119.406,255.727 119.406,248.818 C 119.406,241.909 119.406,228.091 119.406,221.182 C 119.406,214.273 119.406,214.273 128.688,214.273"/>
    <line style="fill: none; fill-opacity:0; stroke-width: 0.2; stroke: #000000" x1="128.688" y1="255.727" x2="193.665" y2="255.727"/>
    <line style="fill: none; fill-opacity:0; stroke-width: 0.2; stroke: #000000" x1="202.947" y1="221.182" x2="202.947" y2="248.818"/>
    <line style="fill: none; fill-opacity:0; stroke-width: 0.2; stroke: #000000" x1="119.406" y1="221.182" x2="119.406" y2="248.818"/>
    <line style="fill: none; fill-opacity:0; stroke-width: 0.2; stroke: #000000" x1="128.688" y1="214.273" x2="193.665" y2="214.273"/>
    <text font-size="12.7998" style="fill: #000000;text-anchor:middle;font-family:sans-serif;font-style:normal;font-weight:normal" x="161.176" y="239">
      <tspan x="161.176" y="239">Execute Task</tspan>
    </text>
  </g>
  <g>
    <ellipse style="fill: #000000" cx="160" cy="301" rx="20" ry="20"/>
    <ellipse style="fill: none; fill-opacity:0; stroke-width: 2; stroke: #000000" cx="160" cy="301" rx="20" ry="20"/>
    <ellipse style="fill: none; fill-opacity:0; stroke-width: 0.2; stroke: #000000" cx="160" cy="301" rx="20" ry="20"/>
    <ellipse style="fill: #ffffff" cx="160" cy="301" rx="17.1429" ry="17.1429"/>
    <ellipse style="fill: none; fill-opacity:0; stroke-width: 2; stroke: #000000" cx="160" cy="301" rx="17.1429" ry="17.1429"/>
    <ellipse style="fill: none; fill-opacity:0; stroke-width: 0.2; stroke: #000000" cx="160" cy="301" rx="17.1429" ry="17.1429"/>
  </g>
  <g>
    <line style="fill: none; fill-opacity:0; stroke-width: 2; stroke: #000000" x1="161" y1="190" x2="161.106" y2="204.537"/>
    <polygon style="fill: #000000" points="161.16,212.037 156.088,202.073 161.106,204.537 166.087,202.001 "/>
    <polygon style="fill: none; fill-opacity:0; stroke-width: 2; stroke: #000000" points="161.16,212.037 156.088,202.073 161.106,204.537 166.087,202.001 "/>
  </g>
  <g>
    <line style="fill: none; fill-opacity:0; stroke-width: 2; stroke: #000000" x1="161.176" y1="255.727" x2="160.453" y2="271.274"/>
    <polygon style="fill: #000000" points="160.104,278.766 155.574,268.545 160.453,271.274 165.564,269.01 "/>
    <polygon style="fill: none; fill-opacity:0; stroke-width: 2; stroke: #000000" points="160.104,278.766 155.574,268.545 160.453,271.274 165.564,269.01 "/>
  </g>
  <g>
    <line style="fill: none; fill-opacity:0; stroke-width: 2; stroke: #000000" x1="181" y1="170" x2="201.52" y2="170"/>
    <polygon style="fill: #000000" points="209.02,170 199.02,175 201.52,170 199.02,165 "/>
    <polygon style="fill: none; fill-opacity:0; stroke-width: 2; stroke: #000000" points="209.02,170 199.02,175 201.52,170 199.02,165 "/>
  </g>
  <g>
    <line style="fill: none; fill-opacity:0; stroke-width: 2; stroke: #000000" x1="330.744" y1="170" x2="349.264" y2="170"/>
    <polygon style="fill: #000000" points="356.764,170 346.764,175 349.264,170 346.764,165 "/>
    <polygon style="fill: none; fill-opacity:0; stroke-width: 2; stroke: #000000" points="356.764,170 346.764,175 349.264,170 346.764,165 "/>
  </g>
  <g>
    <line style="fill: none; fill-opacity:0; stroke-width: 2; stroke: #000000" x1="379" y1="190" x2="378.385" y2="205.544"/>
    <polygon style="fill: #000000" points="378.088,213.038 373.488,202.849 378.385,205.544 383.48,203.244 "/>
    <polygon style="fill: none; fill-opacity:0; stroke-width: 2; stroke: #000000" points="378.088,213.038 373.488,202.849 378.385,205.544 383.48,203.244 "/>
  </g>
  <g>
    <line style="fill: none; fill-opacity:0; stroke-width: 2; stroke: #000000" x1="399" y1="170" x2="414.272" y2="169.389"/>
    <polygon style="fill: #000000" points="421.766,169.089 411.974,174.485 414.272,169.389 411.574,164.493 "/>
    <polygon style="fill: none; fill-opacity:0; stroke-width: 2; stroke: #000000" points="421.766,169.089 411.974,174.485 414.272,169.389 411.574,164.493 "/>
  </g>
  <g>
    <line style="fill: none; fill-opacity:0; stroke-width: 2; stroke: #000000" x1="444" y1="149" x2="443.27" y2="122.732"/>
    <polygon style="fill: #000000" points="443.062,115.235 448.338,125.093 443.27,122.732 438.342,125.37 "/>
    <polygon style="fill: none; fill-opacity:0; stroke-width: 2; stroke: #000000" points="443.062,115.235 448.338,125.093 443.27,122.732 438.342,125.37 "/>
  </g>
  <g>
    <line style="fill: none; fill-opacity:0; stroke-width: 2; stroke: #000000" x1="464" y1="169" x2="477.67" y2="169.584"/>
    <polygon style="fill: #000000" points="485.163,169.905 474.959,174.473 477.67,169.584 475.386,164.482 "/>
    <polygon style="fill: none; fill-opacity:0; stroke-width: 2; stroke: #000000" points="485.163,169.905 474.959,174.473 477.67,169.584 475.386,164.482 "/>
  </g>
  <g>
    <line style="fill: none; fill-opacity:0; stroke-width: 2; stroke: #000000" x1="594.603" y1="170" x2="610.271" y2="169.383"/>
    <polygon style="fill: #000000" points="617.766,169.088 607.97,174.478 610.271,169.383 607.577,164.485 "/>
    <polygon style="fill: none; fill-opacity:0; stroke-width: 2; stroke: #000000" points="617.766,169.088 607.97,174.478 610.271,169.383 607.577,164.485 "/>
  </g>
  <g>
    <line style="fill: none; fill-opacity:0; stroke-width: 2; stroke: #000000" x1="640" y1="149" x2="640" y2="122.736"/>
    <polygon style="fill: #000000" points="640,115.236 645,125.236 640,122.736 635,125.236 "/>
    <polygon style="fill: none; fill-opacity:0; stroke-width: 2; stroke: #000000" points="640,115.236 645,125.236 640,122.736 635,125.236 "/>
  </g>
  <g>
    <line style="fill: none; fill-opacity:0; stroke-width: 2; stroke: #000000" x1="660" y1="169" x2="674.493" y2="169"/>
    <polygon style="fill: #000000" points="681.993,169 671.993,174 674.493,169 671.993,164 "/>
    <polygon style="fill: none; fill-opacity:0; stroke-width: 2; stroke: #000000" points="681.993,169 671.993,174 674.493,169 671.993,164 "/>
  </g>
  <g>
    <line style="fill: none; fill-opacity:0; stroke-width: 2; stroke: #000000" x1="767.771" y1="169" x2="783.263" y2="168.386"/>
    <polygon style="fill: #000000" points="790.757,168.089 780.963,173.481 783.263,168.386 780.567,163.489 "/>
    <polygon style="fill: none; fill-opacity:0; stroke-width: 2; stroke: #000000" points="790.757,168.089 780.963,173.481 783.263,168.386 780.567,163.489 "/>
  </g>
  <g>
    <line style="fill: none; fill-opacity:0; stroke-width: 2; stroke: #000000" x1="835" y1="188" x2="834.336" y2="207.27"/>
    <polygon style="fill: #000000" points="834.077,214.765 829.425,204.599 834.336,207.27 839.419,204.944 "/>
    <polygon style="fill: none; fill-opacity:0; stroke-width: 2; stroke: #000000" points="834.077,214.765 829.425,204.599 834.336,207.27 839.419,204.944 "/>
  </g>
  <text font-size="12.7998" style="fill: #000000;text-anchor:start;font-family:sans-serif;font-style:normal;font-weight:normal" x="125" y="144">
    <tspan x="125" y="144">Single Runing</tspan>
  </text>
  <text font-size="12.7998" style="fill: #000000;text-anchor:start;font-family:sans-serif;font-style:normal;font-weight:normal" x="367" y="144">
    <tspan x="367" y="144">Exist</tspan>
  </text>
  <g>
    <ellipse style="fill: #000000" cx="377" cy="301" rx="20" ry="20"/>
    <ellipse style="fill: none; fill-opacity:0; stroke-width: 2; stroke: #000000" cx="377" cy="301" rx="20" ry="20"/>
    <ellipse style="fill: none; fill-opacity:0; stroke-width: 0.2; stroke: #000000" cx="377" cy="301" rx="20" ry="20"/>
    <ellipse style="fill: #ffffff" cx="377" cy="301" rx="17.1429" ry="17.1429"/>
    <ellipse style="fill: none; fill-opacity:0; stroke-width: 2; stroke: #000000" cx="377" cy="301" rx="17.1429" ry="17.1429"/>
    <ellipse style="fill: none; fill-opacity:0; stroke-width: 0.2; stroke: #000000" cx="377" cy="301" rx="17.1429" ry="17.1429"/>
  </g>
  <g>
    <line style="fill: none; fill-opacity:0; stroke-width: 2; stroke: #000000" x1="378" y1="256.727" x2="377.401" y2="271.272"/>
    <polygon style="fill: #000000" points="377.092,278.766 372.508,268.568 377.401,271.272 382.499,268.98 "/>
    <polygon style="fill: none; fill-opacity:0; stroke-width: 2; stroke: #000000" points="377.092,278.766 372.508,268.568 377.401,271.272 382.499,268.98 "/>
  </g>
  <text font-size="12.7998" style="fill: #000000;text-anchor:start;font-family:sans-serif;font-style:normal;font-weight:normal" x="430" y="206">
    <tspan x="430" y="206">Trigger</tspan>
  </text>
</svg>
